<svg preserveAspectRatio="none" width="100%" height="100%" overflow="visible" style="display: block;" viewBox="0 0 162 56" fill="none" xmlns="http://www.w3.org/2000/svg">
<g id="Prancheta 10 1 [Vectorized]">
<path id="Vector" d="M31.2542 18.1819C33.3777 18.0586 36.9455 17.8816 38.7433 19.2932C40.036 20.3081 40.3538 23.9123 40.3899 25.5923C40.4334 27.6131 40.6954 32.0952 39.3498 33.6634C38.7633 34.3469 37.5472 34.36 36.7105 34.3922C29.9109 34.7065 27.031 34.2493 27.8268 26.5366C28.1651 23.2585 27.4122 18.9448 31.2542 18.1819ZM35.5026 28.9729C36.3809 28.3442 36.2055 27.0451 36.1449 26.0341C36.0204 23.9569 35.8707 22.7252 33.585 22.945C33.0613 23.4045 32.879 24.0741 32.9265 24.7481C33.1108 27.369 32.0198 29.6112 35.5026 28.9729Z" fill="var(--fill-0, white)"/>
<path id="Vector_2" d="M81.5164 16.2709C87.7199 16.1489 86.5483 15.706 86.5781 21.8839C87.3884 21.2374 88.1975 20.8548 89.2431 20.7536C90.3873 20.6408 91.5268 21.0108 92.387 21.7746C95.0141 24.0648 94.9487 30.5175 92.7079 33.1205C91.4413 34.2744 89.5782 34.8186 87.9575 34.0362C87.4038 33.7695 86.7848 33.1955 86.2549 33.1932C86.1432 33.6754 86.2145 33.7326 85.9234 34.0279C84.6746 34.2113 82.8733 34.1767 81.6269 33.9946C81.08 33.9029 81.1714 31.2617 81.2127 30.87C81.4297 28.8087 80.7972 17.4024 81.5164 16.2709ZM88.156 29.803C88.6146 29.31 88.7287 29.0266 88.8118 28.3693C88.9936 26.9285 89.059 25.2233 87.1769 25.3043C86.6648 25.8175 86.5531 26.2581 86.5068 26.9642C86.4105 28.3848 86.401 29.8506 88.156 29.803Z" fill="var(--fill-0, white)"/>
<path id="Vector_3" d="M128.768 20.8187C131.058 20.6683 130.852 21.4468 132.191 21.7182C132.337 21.4886 132.553 21.0867 132.809 21.0788C133.659 21.0528 136.599 20.836 137.23 21.2822C137.349 22.3236 135.306 32.9895 134.883 34.0885C133.716 34.16 132.253 34.1231 131.064 34.1255C130.763 34.1267 130.491 34.1028 130.191 34.0802C129.845 33.5634 130.236 33.7527 129.955 33.2443C129.176 33.4158 128.567 34.2755 127.614 34.3719C123.531 34.7863 122.26 31.994 122.868 28.3883C123.483 24.7564 124.537 21.2346 128.768 20.8187ZM129.781 29.7887C130.657 28.9563 131.364 26.6974 130.726 25.6186C130.316 25.3328 130.139 25.3542 129.595 25.3959C128.818 26.2532 128.039 28.5717 128.74 29.6148C129.163 29.8768 129.206 29.8672 129.781 29.7887Z" fill="var(--fill-0, white)"/>
<path id="Vector_4" d="M95.8019 21.023C96.8403 20.9998 99.9474 20.6778 100.816 21.4164C101.764 22.2222 99.7941 30.5781 102.324 29.8315C104.369 29.229 102.484 22.8731 103.512 21.2441C103.807 21.0414 103.974 21.0275 104.329 20.9967C110.112 20.4956 108.676 21.7746 108.711 27.1439C108.709 27.9918 109.001 33.717 108.298 33.9707C107.59 34.2255 104.776 34.16 103.899 34.0195C103.549 33.6527 103.717 33.5753 103.546 32.9466C103.058 33.0073 102.287 33.8599 101.273 34.1898C100.204 34.547 99.0349 34.4446 98.0427 33.9087C96.9092 33.2967 96.1845 32.2952 95.8375 31.0616C95.4632 29.7327 95.2446 21.98 95.8019 21.023Z" fill="var(--fill-0, white)"/>
<path id="Vector_5" d="M50.6622 20.7986C51.6271 20.7455 52.5593 20.8392 53.4066 21.3464C54.5132 22.009 55.1117 23.1846 55.4045 24.4042C55.7132 25.69 55.9165 33.08 55.3929 33.9254C54.9467 34.2136 50.4907 34.2422 50.3807 33.8719C49.6787 31.5022 50.5869 28.1645 49.9606 25.7936C49.7829 25.1208 48.095 24.7803 47.9215 26.6974C47.9182 28.9587 48.0623 31.457 47.8072 33.6802C47.7275 34.3756 43.2687 34.1993 42.6632 33.8612C42.3637 33.1395 42.3137 22.0317 42.6131 21.3417C42.6948 21.1535 42.8726 21.1033 43.0598 21.0593C43.8373 20.8773 46.7722 20.8088 47.3953 21.22C47.6281 21.6064 47.5866 21.7727 47.599 22.2522L47.602 22.4216C48.7012 21.352 49.2297 21.125 50.6622 20.7986Z" fill="var(--fill-0, white)"/>
<path id="Vector_6" d="M72.8108 20.816C76.3277 20.1746 79.8007 22.2565 79.736 26.0544C79.7152 27.2774 79.9993 33.3718 79.365 33.9993C78.3482 34.2422 75.8705 34.11 74.7326 34.0815C74.6648 33.7087 74.5955 33.4146 74.5027 33.0467C74.0624 33.13 73.2346 34.0469 72.3887 34.2565C71.1419 34.5649 70.0307 34.2684 68.9239 33.6814C68.0373 33.0693 67.3948 32.4096 67.187 31.3224C66.3131 26.7451 71.2669 26.2045 74.3673 25.6996C74.3309 25.2519 74.3318 25.184 74.2111 24.7613C73.8809 24.4054 74.0774 24.51 73.6031 24.4314C73.0252 24.5874 72.8329 24.816 72.3788 25.1995C71.6963 25.203 67.942 25.4328 67.8985 24.8577C67.69 22.0962 71.1745 21.022 72.8108 20.816ZM72.9088 30.6973C73.7678 30.4925 74.2702 30.1043 74.4127 29.1659L74.3177 28.9028C74.0315 28.8409 74.1329 28.8444 73.8287 28.8992C73.0471 29.0588 72.6856 29.0945 72.1732 29.703C72.0724 30.0971 72.0663 29.9007 72.2348 30.3067C72.5491 30.5675 72.5266 30.5627 72.9088 30.6973Z" fill="var(--fill-0, white)"/>
<path id="Vector_7" d="M63.8196 15.5783C64.4692 15.5678 65.8671 15.5265 66.402 15.5699C67.4081 15.6517 67.1723 18.8036 66.9733 19.4193C66.652 20.4134 64.8335 19.5743 64.1417 19.9853C63.8073 20.1842 63.8047 20.3927 63.697 20.7202C63.9876 21.3777 65.7849 20.6624 66.7032 21.2403C66.9931 21.8264 66.9884 24.7052 66.5768 25.1827C66.0224 25.378 64.3842 25.3125 63.7098 25.3125C63.7051 27.1344 63.7094 28.9575 63.7229 30.7794C63.7241 31.7022 63.9611 33.5384 63.2196 34.1052C62.2447 34.1135 59.5162 34.2933 58.7732 33.8825C58.4559 32.9311 58.5905 26.7641 58.5965 25.3196C57.9625 25.322 57.1746 25.3947 56.6271 25.1315C56.3679 24.4117 56.2605 21.6581 56.7303 21.1136C57.2619 20.9371 57.9784 20.9969 58.5595 21.0026C58.7441 17.012 59.9108 15.9707 63.8196 15.5783Z" fill="var(--fill-0, white)"/>
<path id="Vector_8" d="M18.3004 20.8162C20.8231 20.5035 23.3754 21.5141 24.8707 23.5907C25.4589 24.4074 26.1231 25.2698 25.308 26.1617C24.6043 26.5129 21.2357 26.3593 20.321 26.3105C19.9763 25.6711 19.9024 25.3888 19.2536 25.1162C17.7902 25.2352 18.0997 29.01 18.8916 29.9174C19.7416 30.2353 19.9612 29.4649 20.2696 28.8242C21.3944 28.7492 24.3155 28.6004 25.3869 28.954C25.5644 29.0136 25.5846 29.2303 25.6708 29.4601C24.3349 35.957 13.8112 36.1368 12.9043 29.2827C12.3353 24.9828 13.5364 21.4737 18.3004 20.8162Z" fill="var(--fill-0, white)"/>
<path id="Vector_9" d="M139.504 21.0507C140.629 21.026 142.981 20.8927 143.981 21.174C144.284 21.7452 143.92 21.5805 144.103 22.3196C145.189 21.4953 145.582 21.049 147.001 21.0543C147.662 21.0568 148.773 20.8772 149.235 21.3037C149.305 22.1869 148.724 25.2125 148.392 26.0556C147.992 27.0701 145.17 25.69 144.143 26.6557C143.149 27.5893 143.224 28.2383 143.008 29.5565C142.728 30.7972 142.631 32.4941 142.136 33.5622C141.727 34.4446 137.314 34.2707 136.757 33.8683C136.569 32.7787 138.464 24.3551 138.72 22.5991C138.813 21.9534 138.936 21.4158 139.504 21.0507Z" fill="var(--fill-0, white)"/>
<path id="Vector_10" d="M119.215 16.3061C120.016 16.2925 123.163 16.1329 123.656 16.5087C123.666 19.3173 121.069 30.2185 120.486 33.661C120.433 33.973 120.181 34.0326 119.941 34.1266C118.966 34.1266 116.041 34.2743 115.347 33.898C115.214 32.4417 117.989 19.2786 118.515 16.7217C118.572 16.4427 118.959 16.3736 119.215 16.3061Z" fill="var(--fill-0, white)"/>
<path id="Vector_11" d="M35.6788 35.7188C38.0401 35.6747 40.3839 35.3116 38.673 38.8446C38.3299 39.5543 32.4851 39.5483 31.5323 39.5769C30.81 39.7174 29.3811 39.9199 28.729 39.54C27.5127 38.8327 28.0963 37.0656 28.6868 36.1261C29.2273 35.8569 34.7515 35.7652 35.6788 35.7188Z" fill="var(--fill-0, white)"/>
<path id="Vector_12" d="M111.224 30.5852C113.455 30.4102 114.144 31.1282 113.711 33.4753C113.645 33.8349 113.514 33.8801 113.23 34.0361C113.142 34.0456 113.054 34.054 112.966 34.0611C112.312 34.1135 111.634 34.1576 111.138 33.6932C110.811 33.3848 110.63 32.9513 110.641 32.5012C110.648 32.0094 110.869 30.9544 111.224 30.5852Z" fill="var(--fill-0, white)"/>
</g>
</svg>
