<svg preserveAspectRatio="none" width="100%" height="100%" overflow="visible" style="display: block;" viewBox="0 0 199.367 198.871" fill="none" xmlns="http://www.w3.org/2000/svg">
<g id="image 5 [Vectorized]">
<path id="Vector" d="M91.1062 53.0198C91.1483 53.016 91.1905 53.0122 91.2326 53.0084C96.2086 51.2913 102.127 51.9515 106.842 54.1905C106.952 54.2428 106.891 54.2322 106.999 54.2347C109.058 52.4914 110.913 53.0066 113.319 53.3973C113.921 53.495 114.672 53.4186 115.218 53.6512C120.018 57.7013 125.237 61.3964 131.367 63.0512C134.425 63.8765 138.465 64.6315 141.605 64.5449C149.914 64.3158 155.67 64.94 163.366 68.2558C176.016 73.7055 183.999 84.7808 185.151 98.4974C185.747 105.216 184.371 111.51 181.927 117.761C181.392 119.133 180.716 120.468 180.115 121.825C180.202 122.183 180.215 122.13 180.413 122.412C182.577 125.514 183.77 129.298 183.988 133.059C184.027 133.741 184.135 135.7 183.594 136.189L183.418 136.18C182.451 135.777 181.714 135.381 180.674 134.983C178.904 134.304 175.289 133.847 173.478 134.365C169.272 141.05 165.394 145.367 159.753 150.769C162.38 153.385 163.729 156.167 163.757 159.938C163.782 163.153 162.667 166.228 160.346 168.509C158.375 170.473 155.689 171.552 152.905 171.502C150.755 171.473 147.195 170.603 147.28 167.76C147.371 164.743 150.529 167.423 151.907 165.838C154.19 163.217 152.127 159.889 149.102 159.176C145.458 162.246 136.498 167.048 132.028 168.708C132.056 170.728 131.821 172.321 130.906 174.126C129.35 177.196 126.318 179.163 122.852 179.158C121.399 179.155 119.634 178.889 118.571 177.793C118.004 177.216 117.709 176.426 117.757 175.619C117.881 173.511 119.798 174.522 120.312 172.291C120.326 170.151 118.878 168.561 117.11 167.553C116.21 167.04 114.556 166.393 113.536 166.391C112.928 165.967 111.313 165.513 110.537 165.178C107.503 163.869 105.379 162.248 103.275 159.765C102.685 159.227 102.029 157.921 101.465 157.25C103.949 156.718 105.368 156.382 107.769 155.615C107.026 153.959 106.813 153.235 106.75 151.432C106.794 150.646 106.851 150.061 106.957 149.28C105.522 149.625 104.125 150.063 102.685 150.405C99.448 151.195 96.1276 151.592 92.7954 151.585C92.7477 151.022 92.6923 150.039 92.6004 149.503C91.7879 149.904 91.5924 150.102 90.7092 149.66C88.2791 148.176 84.7735 145.722 83.3129 143.221C82.062 141.079 82.0052 136.914 81.9662 134.404C81.954 133.615 81.9686 132.803 81.9727 132.012C79.1377 131.42 74.8564 128.604 72.7708 126.637C70.6913 124.612 69.2482 122.358 68.9943 119.403C68.9749 119.178 69.016 119.282 68.8591 119.097C69.2854 118.452 68.7095 117.703 69.8267 116.383C67.4748 112.811 65.7918 108.843 64.8595 104.671C64.6413 103.719 64.4547 101.482 64.1855 100.77C63.6993 101.37 64.6368 102.408 63.3876 102.845C62.0746 102.764 61.4065 98.9936 64.1674 99.0461C64.1003 96.7042 64.3808 93.8984 64.8378 91.5846C64.3394 90.8767 64.1715 90.3604 64.142 89.5045C63.7596 84.6217 64.8567 76.9739 67.0739 72.5856C70.9256 64.9623 81.8002 57.1798 89.727 54.5107C90.1412 53.7343 90.372 53.5186 91.1062 53.0198Z" fill="var(--fill-0, #9F5CF7)"/>
<path id="Vector_2" d="M147.249 115.014C149.908 114.648 152.471 113.9 155.102 113.402C162.878 111.929 169.709 112.957 176.138 117.819C176.801 118.32 180.101 121.823 180.115 121.825C180.202 122.183 180.215 122.13 180.413 122.412C182.577 125.514 183.77 129.298 183.988 133.059C184.027 133.741 184.135 135.7 183.594 136.189L183.418 136.18C182.451 135.777 181.714 135.381 180.673 134.983C178.904 134.304 175.289 133.847 173.478 134.365C169.272 141.05 165.394 145.367 159.753 150.769C162.38 153.385 163.729 156.167 163.757 159.938C163.782 163.153 162.667 166.228 160.346 168.509C158.375 170.473 155.689 171.552 152.905 171.502C150.755 171.473 147.195 170.603 147.28 167.76C147.371 164.743 150.529 167.423 151.907 165.838C154.19 163.217 152.127 159.889 149.102 159.176C145.458 162.246 136.498 167.048 132.028 168.708C132.056 170.728 131.821 172.322 130.906 174.126C129.35 177.196 126.318 179.164 122.852 179.158C121.399 179.155 119.634 178.889 118.571 177.793C118.004 177.216 117.709 176.426 117.757 175.619C117.881 173.511 119.798 174.522 120.312 172.291C120.326 170.151 118.877 168.561 117.11 167.553C116.21 167.04 114.556 166.393 113.536 166.391C112.928 165.967 111.313 165.513 110.537 165.178C107.503 163.869 105.379 162.248 103.275 159.765C102.685 159.227 102.029 157.921 101.465 157.25C103.949 156.718 105.368 156.382 107.769 155.615C107.026 153.959 106.813 153.235 106.75 151.432C106.794 150.646 106.851 150.061 106.957 149.28C108.904 143.274 113.223 140.483 119.473 140.513C120.44 140.631 121.125 140.908 121.827 140.181L121.795 140.074C122.007 139.47 122.164 138.848 122.261 138.217C122.332 137.763 122.31 137.358 122.47 136.938C121.115 135.995 119.992 135.044 118.923 133.779C118.624 133.425 118.545 133.189 118.182 133.1L118.183 132.314C118.199 131.659 118.187 131.055 118.172 130.398C118.447 130.11 119.253 129.765 119.602 129.372C120.294 128.593 120.845 127.725 121.491 126.912C124.13 123.594 128.274 121.154 132.589 121.107C134.442 121.084 135.959 121.762 137.555 122.624L138.196 122.909L139.472 123.528C139.733 122.802 139.707 122.353 139.714 121.593C140.114 121.418 140.51 121.237 140.903 121.048C143.825 119.461 145.416 117.694 147.249 115.014Z" fill="var(--fill-0, #9F5CF7)"/>
<path id="Vector_3" d="M147.249 115.014C149.908 114.648 152.471 113.9 155.102 113.402C162.878 111.929 169.709 112.957 176.138 117.819C176.801 118.32 180.101 121.823 180.115 121.825C180.202 122.183 180.215 122.13 180.413 122.412C182.577 125.514 183.77 129.298 183.988 133.059C184.027 133.741 184.135 135.7 183.594 136.189L183.418 136.18C182.451 135.777 181.714 135.381 180.674 134.983C178.904 134.304 175.289 133.847 173.478 134.365C169.272 141.05 165.394 145.367 159.753 150.769C158.262 149.016 154.981 147.539 152.828 146.812C152.358 146.717 152.265 146.7 151.842 146.48C151.694 146.525 149.459 146.137 149.083 146.101C150.065 143.828 150.323 140.645 150.093 138.208C149.64 133.428 146.936 128.999 143.18 126.064C142.504 125.531 141.799 125.035 141.071 124.578C140.593 124.275 139.885 123.887 139.472 123.528C139.733 122.802 139.707 122.353 139.714 121.593C140.114 121.418 140.51 121.237 140.903 121.048C143.825 119.461 145.416 117.694 147.249 115.014Z" fill="var(--fill-0, #4821B5)"/>
<path id="Vector_4" d="M147.249 115.014C149.908 114.648 152.471 113.9 155.102 113.402C162.879 111.929 169.709 112.957 176.138 117.819C176.801 118.321 180.101 121.823 180.115 121.825C180.202 122.183 180.215 122.13 180.413 122.413C182.577 125.514 183.77 129.298 183.988 133.059C184.027 133.741 184.135 135.7 183.594 136.189L183.418 136.18C182.812 134.993 180.145 132.495 179.139 131.519C172.246 124.858 163.807 121.118 154.184 120.986C150.326 120.933 144.427 121.711 140.903 121.048C143.825 119.461 145.416 117.694 147.249 115.014Z" fill="var(--fill-0, #5D2BD7)"/>
<path id="Vector_5" d="M151.842 146.48C160.123 143.352 164.532 135.228 173.478 134.365C169.272 141.05 165.394 145.367 159.753 150.769C158.262 149.016 154.981 147.539 152.828 146.812C152.358 146.717 152.265 146.7 151.842 146.48Z" fill="var(--fill-0, #FEBC52)"/>
<path id="Vector_6" d="M149.083 146.101C149.459 146.137 151.694 146.525 151.842 146.48C152.265 146.7 152.358 146.717 152.828 146.812C154.981 147.539 158.262 149.016 159.753 150.769C162.38 153.385 163.729 156.167 163.757 159.938C163.782 163.153 162.667 166.228 160.346 168.509C158.375 170.473 155.689 171.552 152.905 171.502C150.755 171.473 147.195 170.603 147.28 167.76C147.371 164.743 150.529 167.423 151.907 165.838C154.19 163.217 152.127 159.889 149.102 159.176C145.458 162.246 136.498 167.048 132.028 168.708C132.056 170.728 131.821 172.321 130.906 174.126C129.35 177.196 126.318 179.163 122.852 179.158C121.399 179.155 119.634 178.889 118.571 177.793C118.004 177.216 117.709 176.426 117.757 175.619C117.881 173.511 119.798 174.522 120.312 172.291C120.326 170.151 118.877 168.561 117.11 167.553C116.21 167.04 114.556 166.393 113.536 166.391C112.928 165.967 111.313 165.513 110.537 165.178C107.503 163.868 105.379 162.248 103.275 159.765C102.685 159.227 102.029 157.921 101.465 157.25C103.949 156.718 105.368 156.382 107.769 155.615C108.821 156.645 109.417 158.045 111.1 158.53C112.235 158.856 113.093 158.968 114.159 158.455C116.278 157.436 114.692 156.153 113.844 154.938C113.246 153.994 114.681 152.296 115.727 152.016C119.269 151.071 122.662 153.902 125.753 155.307C131.883 158.093 138.658 157.527 143.933 153.206C146.601 151.021 147.673 149.199 149.083 146.101Z" fill="var(--fill-0, #7C43EC)"/>
<path id="Vector_7" d="M107.626 158.451C109.246 160.433 111.156 161.8 113.792 161.702C116.53 161.6 116.59 160.523 117.864 158.993C119.023 157.603 123.516 157.839 125.071 158.512C125.705 158.787 127.774 159.724 128.308 159.718C128.822 160.197 129.105 160.487 129.49 161.089C131.065 163.327 131.947 165.976 132.028 168.708C132.056 170.728 131.821 172.321 130.906 174.126C129.35 177.196 126.318 179.163 122.852 179.158C121.399 179.155 119.634 178.889 118.571 177.793C118.004 177.216 117.709 176.426 117.757 175.619C117.881 173.511 119.798 174.522 120.312 172.291C120.326 170.151 118.877 168.561 117.11 167.553C116.21 167.04 114.556 166.393 113.536 166.391C112.928 165.967 111.313 165.513 110.537 165.178C107.503 163.868 105.379 162.248 103.275 159.765C104.483 159.212 106.107 159.169 107.626 158.451Z" fill="var(--fill-0, #9F5CF7)"/>
<path id="Vector_8" d="M152.828 146.812C154.981 147.539 158.262 149.016 159.753 150.769C162.38 153.385 163.729 156.167 163.757 159.938C163.782 163.153 162.667 166.228 160.346 168.509C158.375 170.473 155.689 171.552 152.905 171.502C150.755 171.473 147.195 170.603 147.28 167.76C147.371 164.743 150.529 167.423 151.907 165.838C154.19 163.217 152.127 159.889 149.102 159.176C147.61 158.685 145.64 159.169 144.156 159.503C144.447 158.953 146.313 157.625 146.999 156.925C150.104 153.752 151.304 150.81 152.828 146.812Z" fill="var(--fill-0, #9F5CF7)"/>
<path id="Vector_9" d="M144.156 159.503C145.64 159.169 147.611 158.685 149.102 159.176C145.458 162.246 136.498 167.048 132.028 168.708C131.947 165.976 131.065 163.327 129.49 161.089L130.539 160.364C133.234 161.494 137.635 161.588 140.409 160.779C141.63 160.423 142.95 159.939 144.156 159.503Z" fill="var(--fill-0, #FEBC52)"/>
<path id="Vector_10" d="M128.308 159.719L128.29 159.503C128.56 159.549 130.25 160.225 130.539 160.365L129.49 161.09C129.105 160.488 128.823 160.198 128.308 159.719Z" fill="var(--fill-0, #3B1C98)"/>
<path id="Vector_11" d="M118.172 130.398C118.447 130.11 119.253 129.765 119.602 129.372C120.294 128.593 120.845 127.725 121.491 126.912C124.13 123.594 128.274 121.154 132.589 121.107C134.442 121.084 135.959 121.762 137.556 122.624C136.972 122.724 136.087 122.609 135.488 122.553C130.499 122.089 125.669 124.389 122.62 128.302C122.167 128.882 121.722 129.563 121.299 130.196C122.174 132.831 122.96 133.907 125.398 135.245C128.417 136.901 132.948 135.898 134.343 139.701C134.687 140.638 134.51 141.812 133.94 142.627C132.95 144.24 131.127 144.254 129.466 143.716C127.069 142.94 124.814 141.505 122.322 140.874C122.127 140.824 121.933 140.373 121.827 140.181L121.795 140.074C122.007 139.47 122.164 138.848 122.261 138.217C122.332 137.763 122.31 137.358 122.47 136.938C121.115 135.995 119.992 135.044 118.923 133.778C118.624 133.425 118.545 133.189 118.182 133.1L118.183 132.314C118.199 131.659 118.187 131.055 118.172 130.398Z" fill="var(--fill-0, #7C43EC)"/>
<path id="Vector_12" d="M121.827 140.181L121.795 140.074C122.007 139.47 122.164 138.848 122.261 138.217C122.332 137.763 122.31 137.358 122.47 136.938C123.722 137.652 125.198 138.354 126.616 138.663C129.345 139.258 133.672 138.765 133.94 142.627C132.95 144.24 131.127 144.254 129.466 143.716C127.069 142.94 124.814 141.505 122.322 140.874C122.127 140.824 121.933 140.373 121.827 140.181Z" fill="var(--fill-0, #4821B5)"/>
<path id="Vector_13" d="M106.999 54.2347C109.058 52.4914 110.913 53.0066 113.319 53.3973C113.921 53.495 114.672 53.4186 115.218 53.6512C120.018 57.7013 125.237 61.3964 131.367 63.0512C134.425 63.8765 138.465 64.6315 141.605 64.5449C149.914 64.3158 155.67 64.94 163.366 68.2558C176.016 73.7055 183.999 84.7808 185.15 98.4974C185.747 105.216 184.371 111.51 181.927 117.761C181.392 119.133 180.716 120.468 180.115 121.825C180.101 121.823 176.801 118.32 176.138 117.819C169.709 112.957 162.878 111.929 155.102 113.402C152.471 113.9 149.908 114.648 147.249 115.014C147.543 114.418 147.904 113.857 148.211 113.23C149.081 111.43 149.716 109.525 150.098 107.562C151.08 102.502 149.707 96.6862 153.777 92.613C154.8 91.5904 156.299 90.9397 157.763 91.0034C158.893 91.0479 159.956 91.5525 160.704 92.3995C161.971 93.8427 161.978 95.6953 160.432 96.9251L160.325 97.0093C159.553 97.01 158.638 97.0064 158.306 97.8439C157.639 99.4947 158.657 100.888 160.244 101.405C164.241 102.707 167.749 100.004 168.994 96.3135C171.231 89.6883 167.42 82.4894 160.786 80.4206C156.923 79.2155 152.793 79.6106 149.215 81.4655C144.158 84.0336 140.989 88.6627 139.136 93.8797C138.492 95.6847 138.016 97.6449 137.428 99.4763C136.247 103.157 134.543 106.859 131.271 109.137C130.515 109.664 129.655 110.085 128.833 110.504C131.918 104.306 132.909 98.3945 132.224 91.5493C132.145 90.8022 131.996 89.9936 131.873 89.2462C132.663 88.1334 133.193 87.2985 133.572 85.972C134.618 82.3099 133.83 76.4402 129.556 75.2447C129.25 74.5591 128.923 73.8834 128.574 73.2182C124.563 65.525 116.651 59.0121 108.375 56.4031C108.105 55.1471 107.995 55.013 106.999 54.2347Z" fill="var(--fill-0, #FEBC52)"/>
<path id="Vector_14" d="M91.1062 53.0198C91.1483 53.016 91.1905 53.0122 91.2326 53.0084C96.2086 51.2913 102.127 51.9515 106.842 54.1905C106.952 54.2428 106.891 54.2322 106.999 54.2347C107.995 55.013 108.105 55.1471 108.375 56.4031C116.651 59.0121 124.563 65.525 128.574 73.2182C128.923 73.8834 129.25 74.5591 129.556 75.2447C133.83 76.4402 134.618 82.3099 133.572 85.972C133.193 87.2985 132.663 88.1334 131.873 89.2462C131.996 89.9936 132.145 90.8022 132.224 91.5493C131.538 91.8344 130.87 92.1183 130.163 92.3321C128.308 92.9474 125.431 92.2789 124.058 90.8805C122.851 89.6511 122.111 88.6599 120.684 87.5136C118.357 85.6414 115.878 83.9639 113.274 82.498C97.9663 73.9822 78.253 74.4281 66.3946 88.6636C66.3095 88.6878 66.2244 88.712 66.1393 88.7363C65.636 89.6525 65.201 90.6046 64.8378 91.5846C64.3394 90.8767 64.1715 90.3604 64.142 89.5045C63.7596 84.6217 64.8567 76.9739 67.0739 72.5856C70.9256 64.9623 81.8002 57.1798 89.727 54.5107C90.1412 53.7343 90.372 53.5186 91.1062 53.0198Z" fill="var(--fill-0, #DCDBDD)"/>
<path id="Vector_15" d="M64.142 89.5044C64.5043 88.8778 64.8519 87.9848 65.2013 87.3152C69.1765 79.6968 77.0246 75.3523 85.2233 73.6904C87.1505 73.2999 88.7578 72.9805 90.776 72.9644C100.8 72.8458 110.584 76.0294 118.609 82.0216C120.124 83.1385 121.879 84.5247 123.216 85.8368C122.337 82.97 122.693 78.1948 125.152 76.1395C126.181 75.3233 127.584 74.8681 128.891 75.1715L128.974 75.3129L129.556 75.2447C133.83 76.4402 134.618 82.3099 133.572 85.972C133.193 87.2985 132.663 88.1334 131.873 89.2462C131.996 89.9936 132.145 90.8022 132.224 91.5493C131.538 91.8344 130.87 92.1183 130.163 92.332C128.308 92.9474 125.431 92.2789 124.058 90.8805C122.851 89.6511 122.111 88.6599 120.684 87.5136C118.357 85.6414 115.878 83.9639 113.274 82.498C97.9663 73.9822 78.253 74.4281 66.3946 88.6636C66.3095 88.6878 66.2244 88.712 66.1393 88.7362C65.636 89.6525 65.201 90.6045 64.8378 91.5846C64.3394 90.8767 64.1715 90.3604 64.142 89.5044Z" fill="var(--fill-0, #9D9EAD)"/>
<path id="Vector_16" d="M66.1394 88.7362C68.6418 83.3677 74.9734 78.9558 80.4294 76.9465C94.3056 71.8362 110.747 76.5762 121.608 86.0612C123.157 87.4134 124.711 89.0028 126.403 90.1379C127.433 90.8217 129.32 90.5374 130.403 90.0685C130.959 89.8345 131.35 89.532 131.873 89.2462C131.996 89.9936 132.145 90.8021 132.224 91.5493C131.538 91.8344 130.87 92.1183 130.163 92.332C128.308 92.9474 125.431 92.2789 124.058 90.8805C122.851 89.6511 122.111 88.6599 120.684 87.5136C118.357 85.6414 115.878 83.9639 113.274 82.498C97.9663 73.9822 78.253 74.4281 66.3946 88.6636C66.3095 88.6878 66.2244 88.712 66.1394 88.7362Z" fill="var(--fill-0, #7C43EC)"/>
<path id="Vector_17" d="M129.555 75.2447C133.83 76.4402 134.618 82.3099 133.572 85.972C133.193 87.2985 132.663 88.1334 131.873 89.2462C131.35 89.532 130.959 89.8345 130.403 90.0685C127.889 89.9763 126.536 88.6201 125.646 86.3511C124.202 82.6688 124.772 76.9403 128.974 75.3129L129.555 75.2447Z" fill="var(--fill-0, #DCDBDD)"/>
<path id="Vector_18" d="M129.58 78.2711C132.812 78.2587 133.158 82.8287 132.321 85.1155C131.945 86.1411 131.476 86.6462 130.5 87.0832C127.024 87.2953 126.151 79.8866 129.58 78.2711Z" fill="var(--fill-0, #9D9EAD)"/>
<path id="Vector_19" d="M91.1062 53.0198C91.1483 53.016 91.1905 53.0122 91.2326 53.0084C96.2086 51.2913 102.127 51.9515 106.842 54.1905C106.952 54.2428 106.891 54.2322 106.999 54.2347C107.995 55.013 108.105 55.1471 108.375 56.4031C116.651 59.0121 124.563 65.525 128.574 73.2182C128.923 73.8834 129.25 74.5591 129.556 75.2447L128.974 75.3129L128.891 75.1715C127.584 74.8681 126.181 75.3233 125.152 76.1395C121.636 70.9586 118.653 67.7977 113.557 64.0462C111.808 62.7531 109.979 61.5725 108.08 60.5116C103.435 57.9385 98.124 55.8558 92.9472 54.5862C91.8013 54.3051 90.8822 54.3367 89.727 54.5107C90.1412 53.7343 90.372 53.5186 91.1062 53.0198Z" fill="var(--fill-0, #C0BEC4)"/>
<path id="Vector_20" d="M89.8969 58.5791C91.64 58.7527 92.0287 59.0989 92.0093 60.8925C91.9849 63.1454 92.0407 65.4022 91.9764 67.6553C91.9229 69.5304 90.9265 69.4071 89.3885 69.506C88.9949 69.5353 88.5061 69.6142 88.1307 69.4721C87.8318 69.359 87.5556 69.1233 87.4508 68.8159C87.1471 67.9259 87.1383 60.4771 87.6213 59.6918C88.0152 59.0515 89.2009 58.7065 89.8969 58.5791Z" fill="var(--fill-0, #616578)"/>
<path id="Vector_21" d="M97.9118 61.0901C98.4151 61.1718 98.8989 61.3791 99.3701 61.5701C99.7507 61.7246 100.357 61.9772 100.514 62.3818C100.773 63.0513 100.864 69.1625 100.554 69.662C100.348 69.9941 100.068 70.0687 99.7157 70.1616L98.8843 69.9851C96.7244 69.5144 96.8737 69.0327 96.8752 66.8687C96.8762 65.241 96.7953 63.5373 97.0016 61.9307C97.0528 61.5312 97.5954 61.2442 97.9118 61.0901Z" fill="var(--fill-0, #616578)"/>
<path id="Vector_22" d="M81.7481 63.112C83.0963 63.0804 83.0019 64.0514 82.9833 65.1182C82.9535 66.8254 83.1167 68.6485 82.8449 70.3244C82.7514 70.9013 81.0445 71.3618 80.5443 71.5245C80.396 71.5504 80.2677 71.5339 80.1125 71.5292C78.9802 70.905 79.5045 65.9979 79.6034 64.7491C79.647 64.2012 81.2409 63.3967 81.7481 63.112Z" fill="var(--fill-0, #616578)"/>
<path id="Vector_23" d="M105.508 64.2828C106.265 64.3238 107.728 65.0957 108.2 65.7042C108.449 66.6521 108.363 70.0845 108.258 71.2172C108.218 71.6508 107.958 71.8749 107.625 72.1118C106.774 71.8494 105.67 71.607 105.041 71.0254C104.593 70.0704 104.771 66.3659 104.86 65.1749C104.892 64.7506 105.17 64.506 105.508 64.2828Z" fill="var(--fill-0, #616578)"/>
<path id="Vector_24" d="M74.9897 67.2723C75.7865 67.2974 76.0204 67.6968 76.0319 68.4862C76.0539 70.0003 76.1618 71.7381 75.8282 73.2139C75.7449 73.5828 74.0845 74.3883 73.6861 74.5979C73.066 74.5204 72.8662 74.0885 72.8562 73.5292C72.8303 72.0817 72.7839 70.4162 72.9312 68.9862C73.4602 68.3808 74.3233 67.7275 74.9897 67.2723Z" fill="var(--fill-0, #616578)"/>
<path id="Vector_25" d="M107.078 87.4851C113.309 87.5675 118.81 92.2495 119.583 98.4638C120.746 98.4424 123.354 98.1394 124.248 98.8415C125.019 99.4465 124.872 102.287 123.542 102.27C122.788 101.896 122.912 100.874 122.926 100.17C121.842 100.147 120.839 100.178 119.757 100.213C119.671 104.043 118.482 107.338 115.668 110.042C113.285 112.359 110.066 113.618 106.738 113.533C103.417 113.459 100.265 112.055 97.9918 109.638C95.5638 107.076 94.3508 103.552 94.4113 100.05C93.4228 99.6426 92.6258 99.4028 91.5595 99.8407C91.3783 99.9155 91.1989 99.9951 91.0213 100.079C91.0089 101.13 90.9915 102.116 90.8194 103.158C89.8432 109.072 84.752 113.809 78.6364 113.692C75.3836 113.626 72.2898 112.275 70.0353 109.935C67.6958 107.459 66.3912 104.186 66.3877 100.784C65.7597 100.784 64.7852 100.813 64.1856 100.769C63.6994 101.369 64.6369 102.407 63.3878 102.844C62.0747 102.764 61.4066 98.993 64.1675 99.0454L66.4735 99.0416C67.5077 92.9151 71.4649 88.794 77.688 87.9694C79.6855 87.9098 80.1154 87.9907 82.0678 88.4078C85.3262 89.4908 88.0259 91.8102 89.5827 94.864C90.0786 95.8448 90.5477 97.1082 90.7405 98.1938C92.1106 97.5869 93.0601 97.6005 94.486 98.1394L94.6495 98.2035C94.725 97.8481 94.8017 97.4374 94.896 97.0916C95.3803 95.5114 95.6095 95.0542 96.3871 93.6082C98.131 91.0759 99.45 89.8668 102.2 88.5186C104.294 87.7744 104.9 87.6772 107.078 87.4851Z" fill="var(--fill-0, #171026)"/>
<path id="Vector_26" d="M98.419 93.6334C101.963 89.2138 108.278 88.1712 113.062 91.2157C117.845 94.2604 119.557 100.412 117.033 105.481C114.508 110.55 108.558 112.904 103.237 110.94C97.9148 108.976 94.9338 103.326 96.3242 97.8391C96.7131 96.3037 97.4271 94.8697 98.419 93.6334Z" fill="var(--fill-0, #9F5CF7)"/>
<path id="Vector_27" d="M99.4888 98.6344C100.444 97.6711 101.46 96.8649 102.909 96.8815C105.722 96.9139 107.707 99.1374 107.58 101.92C107.513 103.277 106.897 104.547 105.873 105.441C104.969 106.235 103.773 106.615 102.576 106.492C101.411 106.368 100.671 105.893 99.8169 105.174C98.1523 103.074 98.0997 100.91 99.4888 98.6344Z" fill="var(--fill-0, #171026)"/>
<path id="Vector_28" d="M103.684 95.403C105.65 95.1967 107.33 95.4279 108.834 96.704C113.123 100.341 110.829 107.704 105.054 107.866C103.304 107.916 101.92 107.435 100.609 106.273C100.27 105.964 99.8588 105.627 99.8169 105.174C100.671 105.893 101.411 106.368 102.576 106.492C103.773 106.615 104.969 106.235 105.873 105.441C106.897 104.547 107.513 103.277 107.58 101.92C107.707 99.1373 105.722 96.9138 102.909 96.8815C101.46 96.8649 100.444 97.6711 99.4888 98.6343C99.5404 98.1488 99.705 98.0304 100.027 97.6322C101.093 96.7028 102.41 96.0054 103.684 95.403Z" fill="var(--fill-0, #DCDBDD)"/>
<path id="Vector_29" d="M98.419 93.6334C100.517 93.469 106.437 87.7797 107.266 91.7325C107.52 92.9469 104.504 94.5861 103.684 95.403C102.41 96.0054 101.093 96.7028 100.027 97.6322C99.3516 97.8206 98.4794 98.1003 97.8164 98.2285C97.3589 98.0605 96.7758 97.7789 96.3242 97.8391C96.7131 96.3036 97.427 94.8697 98.419 93.6334Z" fill="var(--fill-0, #5D2BD7)"/>
<path id="Vector_30" d="M88.9604 97.2904C90.5529 101.872 88.9044 106.951 84.9222 109.732C80.94 112.514 75.5911 112.321 71.8197 109.262C68.0484 106.202 66.7704 101.017 68.6893 96.5618C70.6081 92.1062 75.2578 89.4617 80.079 90.0839C82.7547 90.4292 85.2062 91.7542 86.9575 93.8014C87.8371 94.8296 88.5164 96.0128 88.9604 97.2904Z" fill="var(--fill-0, #9F5CF7)"/>
<path id="Vector_31" d="M83.0482 97.2564C84.4531 97.2118 84.8563 98.0051 86.4176 98.1576C86.6387 98.5926 86.9667 98.7431 87.1938 99.0966C88.6418 101.349 88.2271 103.57 86.683 105.566C86.1753 105.981 85.7857 106.26 85.1542 106.471C84.0778 106.839 82.8978 106.753 81.8856 106.235C80.7631 105.643 79.9256 104.627 79.5608 103.414C78.6943 100.548 80.2063 98.0449 83.0482 97.2564Z" fill="var(--fill-0, #171026)"/>
<path id="Vector_32" d="M80.079 90.0839C82.7547 90.4292 85.2063 91.7542 86.9576 93.8014C87.8372 94.8296 88.5165 96.0128 88.9605 97.2904C88.3319 97.538 88.0933 98.2935 87.2385 98.2362C87.0515 98.2236 86.5419 98.1391 86.4176 98.1576C84.8563 98.0051 84.4531 97.2118 83.0482 97.2564C83.2655 97.2263 83.4908 97.1865 83.7083 97.1516C82.9709 96.67 82.2326 96.2434 81.4734 95.7996C80.9673 95.5712 78.6119 93.8918 78.2775 93.4601C77.1179 91.9638 78.3494 90.6096 80.0867 90.8089C80.0373 90.4903 80.005 90.4044 80.079 90.0839Z" fill="var(--fill-0, #5D2BD7)"/>
<path id="Vector_33" d="M80.079 90.0839C82.7547 90.4292 85.2063 91.7542 86.9575 93.8014L86.7933 93.8848C84.2235 92.9606 82.3621 91.7686 80.0867 90.8089C80.0373 90.4903 80.005 90.4044 80.079 90.0839Z" fill="var(--fill-0, #9F5CF7)"/>
<path id="Vector_34" d="M81.4734 95.7996C82.2326 96.2434 82.9709 96.67 83.7083 97.1516C83.4908 97.1865 83.2654 97.2263 83.0481 97.2564C80.2063 98.0449 78.6943 100.548 79.5608 103.414C79.9255 104.627 80.763 105.643 81.8855 106.235C82.8977 106.753 84.0778 106.839 85.1542 106.471C85.7857 106.26 86.1752 105.981 86.683 105.566C86.4008 106.252 85.6086 106.841 84.9705 107.208C81.2951 109.324 76.9974 107.319 76.1856 103.186C75.8543 101.496 76.2179 99.7452 77.1944 98.3256C78.2683 96.789 79.6876 96.133 81.4734 95.7996Z" fill="var(--fill-0, #DCDBDD)"/>
<path id="Vector_35" d="M111.001 123.372C111.577 122.844 112.045 122.389 112.688 121.946C111.868 124.98 111.548 127.736 114.814 129.506C115.173 130.025 115.539 130.241 116.091 130.551C116.641 130.562 117.712 130.642 118.172 130.398C118.187 131.054 118.199 131.658 118.183 132.314L118.182 133.099C118.545 133.189 118.624 133.424 118.923 133.778C119.992 135.043 121.115 135.995 122.47 136.938C122.31 137.357 122.332 137.762 122.261 138.217C122.164 138.848 122.007 139.469 121.795 140.073L121.827 140.18C121.125 140.907 120.44 140.631 119.473 140.512C113.223 140.482 108.904 143.274 106.957 149.28C105.522 149.625 104.125 150.062 102.685 150.404C99.448 151.195 96.1276 151.591 92.7954 151.584C92.7477 151.021 92.6923 150.038 92.6004 149.502C91.788 149.903 91.5925 150.101 90.7093 149.659C88.2792 148.176 84.7735 145.722 83.3129 143.22C82.062 141.078 82.0053 136.913 81.9662 134.403C81.9541 133.615 81.9687 132.802 81.9727 132.012C82.0023 129.84 81.9973 129.363 84.3676 129.066C84.7761 129.015 85.311 128.901 85.7275 128.827C87.763 128.34 89.4215 127.743 91.3898 127.015C93.6694 127.576 95.5609 128.533 98.0978 129.076C98.8211 129.091 99.0732 129.03 99.781 128.895C104.469 127.597 107.152 126.445 111.001 123.372Z" fill="var(--fill-0, #C0BEC4)"/>
<path id="Vector_36" d="M91.3898 127.016C93.6694 127.577 95.5609 128.535 98.0978 129.077C98.8211 129.092 99.0732 129.031 99.781 128.896C100.781 129.302 100.999 128.887 101.951 129.794C102.308 130.735 102.218 132.333 102.489 132.714C102.207 132.797 101.843 132.913 101.564 132.977L101.528 137.251C101.144 141.508 101.399 143.18 97.7172 146.225C96.3133 147.388 94.3303 148.793 92.6004 149.503C91.788 149.904 91.5925 150.103 90.7093 149.661C88.2792 148.177 84.7735 145.723 83.3129 143.222C82.062 141.08 82.0053 136.915 81.9662 134.405C81.9541 133.616 81.9687 132.803 81.9727 132.013C82.0023 129.842 81.9973 129.364 84.3676 129.068C84.7761 129.016 85.311 128.903 85.7275 128.828C87.763 128.341 89.4215 127.744 91.3898 127.016Z" fill="var(--fill-0, #FEBC52)"/>
<path id="Vector_37" d="M98.0978 129.077C98.821 129.091 99.0732 129.03 99.7809 128.895C100.781 129.301 100.999 128.886 101.951 129.793C102.308 130.734 102.217 132.333 102.489 132.713C102.207 132.796 101.843 132.912 101.564 132.976C101.726 129.539 101.359 129.723 98.0978 129.077Z" fill="var(--fill-0, #C0BEC4)"/>
<path id="Vector_38" d="M91.4099 129.253C91.8485 129.377 92.3389 129.549 92.7714 129.698C94.9698 130.456 97.1773 131.03 99.4353 131.577C99.4596 134.314 99.519 138.641 98.8941 141.193C98.2233 143.93 94.3674 146.222 92.0132 147.5C91.7398 147.646 91.7459 147.653 91.4457 147.712C89.5666 147.228 85.3532 143.549 84.7281 141.634C83.7349 138.593 83.8967 134.439 83.9298 131.255C87.051 130.705 88.4115 130.276 91.4099 129.253Z" fill="var(--fill-0, #4821B5)"/>
<path id="Vector_39" d="M91.0173 131.985C91.8114 131.948 92.2879 131.961 93.0542 132.289C94.0211 132.7 94.7783 133.485 95.151 134.465C95.6166 135.693 95.4869 137.14 94.8033 138.275C94.5166 138.75 94.0471 139.366 94.32 139.855C94.7851 140.171 95.3126 140.277 95.7768 139.886C96.0783 139.343 95.7146 138.549 96.3042 138.347C97.1455 138.06 97.5487 139.313 97.466 139.949C97.3053 141.169 96.0143 142.027 94.8056 141.753C94.3014 141.642 93.9023 141.459 93.423 141.402L93.3783 141.543C93.9334 142.673 94.8564 142.495 94.8861 143.363C94.5923 143.93 93.9524 143.944 93.3863 143.794C92.5328 143.567 92.1767 143.015 91.783 142.284C91.6557 141.942 91.694 141.869 91.4507 141.672C90.8904 141.998 90.6825 143.353 89.6205 143.699C88.7121 143.995 87.5202 143.493 88.2908 142.518C88.8184 142.318 89.4347 142.115 89.4455 141.436C88.846 141.167 88.0698 141.999 86.78 141.33C85.3916 140.61 85.3965 138.178 86.6954 138.067C87.23 138.392 87.1115 139.091 87.4345 139.805C88.1006 140.292 89.5025 140.076 88.4368 138.507C86.6937 135.94 87.6605 132.636 91.0173 131.985Z" fill="var(--fill-0, #FEBC52)"/>
<path id="Vector_40" d="M93.1077 137.466C93.5082 137.539 93.5472 137.57 93.7277 137.89C93.7055 138.458 93.2776 138.801 92.8839 139.18C92.5773 139.092 92.5995 139.088 92.3679 138.863C92.1274 138.14 92.54 137.841 93.1077 137.466Z" fill="var(--fill-0, #3B1C98)"/>
<path id="Vector_41" d="M89.4201 137.45C90.4198 137.579 90.9025 138.171 90.3283 139.123C89.524 138.921 89.0517 138.24 89.4201 137.45Z" fill="var(--fill-0, #3B1C98)"/>
<path id="Vector_42" d="M111.001 123.372C111.576 122.844 112.045 122.389 112.688 121.946C111.868 124.98 111.548 127.736 114.814 129.506C115.173 130.025 115.538 130.241 116.09 130.551C116.64 130.562 117.712 130.642 118.172 130.398C118.187 131.054 118.199 131.658 118.183 132.314C116.282 132.531 114.898 132.582 113.263 131.295C112.885 131.002 112.545 130.66 112.254 130.279C109.522 132.275 106.937 133.864 103.663 134.824C103.329 134.922 102.407 135.17 102.247 135.401L102.175 135.878C102.145 135.737 102.118 135.594 102.094 135.451L101.786 135.551C101.733 136.148 101.784 136.773 101.528 137.249L101.564 132.976C101.843 132.912 102.207 132.795 102.489 132.713C102.217 132.332 102.308 130.734 101.951 129.793C100.999 128.886 100.781 129.3 99.7809 128.895C104.469 127.597 107.152 126.445 111.001 123.372Z" fill="var(--fill-0, #9D9EAD)"/>
<path id="Vector_43" d="M111.001 123.373C110.4 125.185 110.482 126.64 111.181 128.41C108.415 130.365 105.833 131.834 102.489 132.713C102.217 132.333 102.308 130.734 101.951 129.793C100.999 128.886 100.781 129.301 99.7809 128.895C104.469 127.598 107.152 126.445 111.001 123.373Z" fill="var(--fill-0, #DCDBDD)"/>
<path id="Vector_44" d="M118.182 133.1C118.545 133.189 118.624 133.425 118.923 133.779C119.992 135.044 121.115 135.995 122.47 136.938C122.31 137.358 122.332 137.763 122.261 138.217C122.164 138.848 122.007 139.47 121.795 140.074L121.827 140.181C121.125 140.908 120.44 140.631 119.473 140.513C118.826 138.668 118.226 135.041 118.182 133.1Z" fill="var(--fill-0, #5D2BD7)"/>
<path id="Vector_45" d="M112.688 121.946C112.842 121.725 113.387 120.622 113.556 120.313C114.096 119.342 114.711 118.415 115.395 117.539C119.591 112.188 127.637 109.073 133.79 113.061C136.778 114.998 139.313 117.956 139.714 121.593C139.707 122.353 139.733 122.802 139.472 123.528L138.196 122.909L137.556 122.624C135.959 121.762 134.442 121.084 132.589 121.107C128.274 121.154 124.13 123.594 121.491 126.912C120.845 127.725 120.294 128.593 119.602 129.372C119.253 129.765 118.447 130.11 118.172 130.398C117.712 130.643 116.64 130.562 116.09 130.552C115.538 130.242 115.173 130.025 114.814 129.507C111.548 127.737 111.868 124.981 112.688 121.946Z" fill="var(--fill-0, #C0BEC4)"/>
<path id="Vector_46" d="M114.814 129.507C118.338 130.53 118.815 128.099 120.568 126.001C123.943 121.984 129.308 118.654 134.745 119.785C136.272 120.101 138.339 121.092 138.196 122.909L137.556 122.624C135.959 121.762 134.442 121.084 132.589 121.107C128.274 121.154 124.13 123.594 121.491 126.912C120.845 127.725 120.294 128.593 119.602 129.372C119.253 129.765 118.447 130.11 118.172 130.398C117.712 130.643 116.64 130.562 116.09 130.552C115.538 130.242 115.173 130.025 114.814 129.507Z" fill="var(--fill-0, #9D9EAD)"/>
<path id="Vector_47" d="M69.8267 116.383C70.5653 117.522 71.3537 118.624 72.1303 119.737C72.6559 120.491 73.0792 121.316 73.6734 122.021C76.6387 125.403 81.2405 127.797 85.5966 128.803C85.6402 128.811 85.6838 128.818 85.7274 128.827C85.3109 128.902 84.776 129.016 84.3675 129.067C81.9972 129.363 82.0023 129.841 81.9727 132.012C79.1377 131.42 74.8564 128.604 72.7707 126.637C70.6913 124.612 69.2482 122.358 68.9942 119.403C68.9749 119.178 69.0159 119.282 68.8591 119.097C69.2854 118.452 68.7095 117.703 69.8267 116.383Z" fill="var(--fill-0, #C0BEC4)"/>
<path id="Vector_48" d="M94.8959 97.0922C94.0846 96.412 93.6661 95.8335 93.578 94.7094C93.4911 93.6007 93.7148 92.7658 94.9734 92.7267C95.3682 92.913 95.3438 93.0881 95.5985 93.5523C95.9361 93.7393 95.9104 93.6615 96.387 93.6089C95.6094 95.0549 95.3802 95.512 94.8959 97.0922Z" fill="var(--fill-0, #5D2BD7)"/>
<path id="Vector_49" d="M102.2 88.5192C103.352 87.064 106.523 83.5075 107.078 87.4857C104.9 87.6778 104.294 87.775 102.2 88.5192Z" fill="var(--fill-0, #5D2BD7)"/>
<path id="Vector_50" d="M77.6878 87.97C78.0264 84.272 80.869 87.2786 82.0677 88.4084C80.1153 87.9914 79.6854 87.9105 77.6878 87.97Z" fill="var(--fill-0, #5D2BD7)"/>
<path id="Vector_51" d="M96.0714 109.919C96.2703 109.901 96.6222 109.848 96.8007 109.93C97.6061 110.314 97.3423 111.448 97.0747 112.083C96.2718 113.988 94.2076 115.137 92.1658 114.963C91.4527 114.901 90.9198 114.719 90.2721 114.431C89.5843 114.053 89.0151 113.745 89.257 112.872C90.1982 111.923 92.2907 114.041 94.2269 112.842C95.976 111.757 95.1228 110.889 96.0714 109.919Z" fill="var(--fill-0, #171026)"/>
<path id="Vector_52" d="M33.8042 52.8351C34.3303 47.3219 35.6144 42.6128 38.8628 37.9798C44.8344 29.4629 55.6944 25.797 65.7714 25.9242C75.136 26.0424 84.7481 29.6974 92.3606 35.0308C88.3102 39.7786 87.9521 47.103 90.844 52.5136L91.1062 53.0198C90.372 53.5186 90.1412 53.7343 89.727 54.5107C81.8002 57.1798 70.9256 64.9623 67.0739 72.5856C64.8567 76.9739 63.7596 84.6217 64.142 89.5044C64.1715 90.3604 64.3394 90.8767 64.8378 91.5846C64.3808 93.8983 64.1003 96.7042 64.1674 99.0461C61.4065 98.9936 62.0746 102.764 63.3876 102.845C64.6368 102.408 63.6992 101.37 64.1855 100.77C64.4547 101.482 64.6413 103.719 64.8595 104.671C65.7918 108.843 67.4748 112.811 69.8267 116.383C68.7095 117.703 69.2854 118.452 68.8591 119.097C69.016 119.282 68.9749 119.178 68.9943 119.403C69.2482 122.358 70.6913 124.612 72.7707 126.637C72.5315 127.286 72.45 127.595 72.3023 128.274C71.66 131.014 71.5451 133.152 71.6324 135.929C69.3959 137.865 67.458 139.617 64.4801 140.448C63.8496 140.689 61.912 141.141 61.5332 141.358C62.1445 142.66 62.6503 143.498 63.4641 144.687C63.8201 144.674 64.115 144.473 64.4586 144.306C65.3379 144.636 66.0061 145.095 66.3435 146.003C67.8717 150.115 65.0789 154.821 61.9653 157.392C60.9888 158.198 59.9786 158.778 58.9055 159.418C58.5637 159.623 58.0026 159.816 57.8643 160.078C58.0119 160.296 57.9249 160.197 58.2363 160.311C55.7742 160.287 52.7113 160.57 50.5799 161.922C48.8669 162.737 47.2742 165.089 48.264 166.972C49.1121 168.587 50.7013 167.596 51.2843 167.85C53.1387 168.657 52.1397 171.403 50.3935 172.074C45.8744 173.811 40.9442 171.066 39.1472 166.766C37.8277 163.661 37.8827 160.588 39.0979 157.461C37.6761 156.716 36.3542 156.094 34.9543 155.271C29.2375 151.892 24.1838 147.503 20.0393 142.322C14.3284 135.079 10.7192 126.072 11.8434 116.775C12.8279 108.631 17.5575 101.313 24.4561 96.9497C27.3041 95.1479 29.5754 94.1605 32.3388 92.0177C31.5122 89.6927 29.7071 85.889 28.6616 83.455L19.4277 62.1092C18.8959 60.8462 16.4218 55.4624 16.4375 54.3838C16.4881 50.8947 17.9421 45.1989 18.7267 41.6533C18.8807 40.9575 19.2728 40.4462 19.8774 40.1387C20.0909 40.1244 20.8646 40.0625 21.0244 40.1553C24.4562 42.149 28.2545 45.0067 31.3168 47.4517C32.8932 48.7104 32.9545 51.201 33.8042 52.8351Z" fill="var(--fill-0, #FEBC52)"/>
<path id="Vector_53" d="M51.6782 105.141C55.4144 106.731 55.6017 108.627 57.4057 111.949C59.6333 116.049 63.296 118.144 67.7778 119.014L68.8591 119.097C69.016 119.282 68.9749 119.178 68.9943 119.403C69.2482 122.358 70.6913 124.612 72.7707 126.636C72.5315 127.286 72.45 127.595 72.3023 128.274C71.66 131.014 71.5451 133.152 71.6324 135.929C69.3959 137.865 67.458 139.617 64.4801 140.448C63.8496 140.689 61.912 141.141 61.5332 141.358C61.1114 141.307 59.9534 141.522 59.4514 141.542C55.3229 141.71 51.5142 140.264 48.2569 137.784C45.4215 135.626 42.9119 132.696 39.2382 132.021C36.5459 131.527 33.1477 132.49 32.6553 135.591C32.5419 136.319 33.0189 137.014 33.4731 137.539C34.5079 137.632 35.433 137.876 35.5499 139.16C35.5961 139.667 35.229 140.445 34.8592 140.785C32.4171 142.942 28.6259 141.864 26.5626 139.776C21.9521 135.112 23.3429 127.606 27.7667 123.316C30.5976 120.57 34.0045 119.162 37.994 119.157C36.4485 115.528 36.7833 112.713 39.1318 109.566C40.9878 112.979 43.6977 114.142 47.4724 113.137C48.9344 112.534 49.5427 111.972 50.5449 110.786C51.7986 108.873 52.1224 107.397 51.6782 105.141Z" fill="var(--fill-0, #9F5CF7)"/>
<path id="Vector_54" d="M51.6782 105.141C55.4144 106.731 55.6017 108.627 57.4057 111.949C59.6333 116.049 63.296 118.144 67.7778 119.014C66.9046 122.282 68.8896 125.963 71.125 128.236C66.6047 130.376 59.1909 129.823 55.8019 125.87C56.5424 123.951 56.5816 121.513 54.2152 120.828C54.0041 120.586 53.6186 119.365 53.4835 118.984L51.6509 113.76C51.4044 113.049 50.8916 111.376 50.5449 110.786C51.7986 108.873 52.1224 107.397 51.6782 105.141Z" fill="var(--fill-0, #9F5CF7)"/>
<path id="Vector_55" d="M67.7777 119.014L68.8591 119.097C69.0159 119.282 68.9748 119.178 68.9942 119.403C69.2482 122.358 70.6912 124.612 72.7707 126.637C72.5314 127.286 72.4499 127.595 72.3022 128.274C71.6599 131.014 71.5451 133.152 71.6323 135.929C69.3958 137.865 67.4579 139.617 64.48 140.448C66.4815 138.394 66.7716 138.549 68.0482 135.767C66.4294 135.936 64.9605 135.984 63.3316 135.831C58.31 135.389 53.6774 132.952 50.4744 129.069C52.1927 128.968 53.5614 128.429 54.8197 127.247C55.2842 126.715 55.4308 126.475 55.8018 125.87C59.1908 129.824 66.6046 130.376 71.1249 128.236C68.8895 125.963 66.9045 122.282 67.7777 119.014Z" fill="var(--fill-0, #7C43EC)"/>
<path id="Vector_56" d="M54.2152 120.827C56.5816 121.513 56.5424 123.95 55.8018 125.87C55.4308 126.475 55.2842 126.715 54.8198 127.247C53.5615 128.428 52.1928 128.967 50.4744 129.068C47.9419 128.937 45.8629 127.695 45.8907 124.917C46.0196 124.428 46.1 124.207 46.2968 123.74L46.4774 123.72C47.2099 124.432 48.7185 124.092 49.6296 123.854C51.2281 123.389 53.5765 122.499 54.2152 120.827Z" fill="var(--fill-0, #FDBD25)"/>
<path id="Vector_57" d="M46.2968 123.741L46.4775 123.72C47.2099 124.432 48.7185 124.092 49.6297 123.854C49.3857 124.328 48.8798 125.195 48.7119 125.631C50.6971 128.776 53.9221 126.604 54.8198 127.247C53.5615 128.429 52.1928 128.968 50.4744 129.069C47.9419 128.938 45.8629 127.696 45.8907 124.918C46.0196 124.428 46.1 124.208 46.2968 123.741Z" fill="var(--fill-0, #F39F05)"/>
<path id="Vector_58" d="M50.5449 110.786C50.8916 111.376 51.4044 113.049 51.6509 113.76L53.4835 118.984C53.6185 119.365 54.004 120.586 54.2152 120.828C53.5765 122.5 51.2281 123.389 49.6296 123.854C48.7185 124.092 47.2099 124.432 46.4774 123.72C47.9137 123.547 49.1696 123.124 50.3629 122.261C52.5527 120.686 53.2713 117.135 51.5165 114.982C50.3798 113.588 49.139 113.335 47.4724 113.137C48.9344 112.534 49.5427 111.972 50.5449 110.786Z" fill="var(--fill-0, #3B1C98)"/>
<path id="Vector_59" d="M45.8907 124.918C44.6628 124.605 39.459 122.091 39.3069 120.878C39.647 120.873 40.4918 121.996 41.2069 122.348C43.2073 123.334 44.1075 123.582 46.2968 123.741C46.1 124.208 46.0196 124.428 45.8907 124.918Z" fill="var(--fill-0, #7740ED)"/>
<path id="Vector_60" d="M19.8775 40.1386C20.091 40.1244 20.8647 40.0624 21.0244 40.1552C24.4563 42.1489 28.2546 45.0066 31.3169 47.4516C32.8933 48.7103 32.9545 51.2009 33.8043 52.835C34.9051 56.6105 36.3847 60.8186 37.6166 64.5786C39.7102 70.8942 41.7518 77.227 43.7412 83.5761L46.1831 91.2352C46.5307 92.3489 47.1915 94.3333 47.3862 95.4207C46.6614 97.5127 45.8108 98.0099 43.8212 98.9751C43.3917 99.179 42.9579 99.3742 42.5204 99.5607L42.5337 99.5985C40.1275 100.427 39.0308 100.937 36.4811 100.76L36.1872 100.459C35.0743 98.51 33.3441 94.2559 32.3389 92.0176C31.5122 89.6927 29.7071 85.889 28.6617 83.4549L19.4278 62.1091C18.8959 60.8461 16.4219 55.4623 16.4375 54.3837C16.4882 50.8947 17.9421 45.1988 18.7268 41.6532C18.8808 40.9574 19.2729 40.4461 19.8775 40.1386Z" fill="var(--fill-0, #C0BEC4)"/>
<path id="Vector_61" d="M19.8775 40.1386C20.0909 40.1244 20.8647 40.0624 21.0244 40.1552C24.4563 42.1489 28.2546 45.0066 31.3168 47.4516C32.8933 48.7103 32.9545 51.2009 33.8042 52.835C34.905 56.6105 36.3846 60.8186 37.6166 64.5786C39.7102 70.8942 41.7518 77.227 43.7412 83.5761L46.1831 91.2352C46.5306 92.3489 47.1914 94.3333 47.3861 95.4207C46.6614 97.5127 45.8108 98.0099 43.8212 98.9751C43.3917 99.179 42.9579 99.3742 42.5203 99.5607L42.1969 98.4575C41.9978 97.7322 41.1283 95.6002 40.8104 94.7268C39.5228 91.2124 38.2008 87.7106 36.8447 84.222L24.8308 53.0808L21.5786 44.7889C21.1439 43.6772 20.1474 41.2247 19.8775 40.1386Z" fill="var(--fill-0, #DCDBDD)"/>
<path id="Vector_62" d="M36.1872 100.459C36.8215 100.105 39.0286 100.206 39.9386 99.8326C40.9092 99.4355 41.354 98.882 42.1969 98.4576L42.5203 99.5608L42.5336 99.5986C40.1274 100.427 39.0307 100.937 36.4811 100.76L36.1872 100.459Z" fill="var(--fill-0, #9D9EAD)"/>
<path id="Vector_63" d="M64.4586 144.306C65.3379 144.636 66.0061 145.095 66.3435 146.003C67.8717 150.115 65.0789 154.821 61.9653 157.392C60.9888 158.198 59.9786 158.778 58.9055 159.418C58.5637 159.623 58.0026 159.816 57.8643 160.078C58.0119 160.296 57.9249 160.197 58.2363 160.311C55.7742 160.287 52.7113 160.57 50.5799 161.923C48.8669 162.737 47.2742 165.089 48.264 166.972C49.1121 168.587 50.7013 167.596 51.2843 167.85C53.1387 168.657 52.1397 171.403 50.3935 172.074C45.8744 173.811 40.9442 171.066 39.1472 166.766C37.8277 163.661 37.8827 160.588 39.0979 157.461C41.2595 152.069 45.6312 149.062 51.2113 147.824C54.5372 147.086 60.59 146.45 63.4642 144.687C63.8201 144.674 64.115 144.473 64.4586 144.306Z" fill="var(--fill-0, #9F5CF7)"/>
<path id="Vector_64" d="M39.0958 102.493C37.817 103.928 37.217 105.763 37.3337 107.676C37.3425 107.817 37.3537 107.957 37.3672 108.098C35.7047 108.665 33.9633 109.453 32.1554 108.89C31.5044 108.687 30.9412 108.263 30.2953 108.249C29.7445 107.37 30.0594 105.258 30.4485 104.304C31.182 102.508 32.8339 103.379 34.2228 103.533C35.0984 103.63 36.4505 103.321 37.2652 102.942C37.7107 102.929 38.6385 102.638 39.0958 102.493Z" fill="var(--fill-0, #FDBD25)"/>
<path id="Vector_65" d="M36.4811 100.76C39.0307 100.937 40.1274 100.427 42.5336 99.5986C42.8757 99.7831 42.7557 99.6549 42.9277 99.9773C42.8547 100.289 42.779 100.422 42.4546 100.595C40.6678 101.544 39.3763 102.973 38.906 104.969C38.7429 105.677 38.6633 106.381 38.7069 107.111C38.7383 107.634 38.8346 108.197 38.8998 108.714C38.9195 108.869 37.3239 109.347 37.1512 109.396C35.5861 109.837 33.7079 110.537 32.1023 109.931C31.2986 109.633 30.6477 109.028 30.2953 108.249C30.9412 108.263 31.5044 108.687 32.1554 108.89C33.9633 109.453 35.7047 108.665 37.3672 108.098C37.3537 107.957 37.3425 107.817 37.3337 107.676C37.217 105.763 37.817 103.928 39.0958 102.493C38.6385 102.638 37.7107 102.929 37.2652 102.942C37.022 102.377 36.588 101.331 36.4811 100.76Z" fill="var(--fill-0, #F39F05)"/>
<path id="Vector_66" d="M44.4733 102.252C46.9246 101.797 49.2811 103.414 49.731 105.86C50.1808 108.307 48.5532 110.652 46.0993 111.094C43.6554 111.534 41.3153 109.919 40.8672 107.482C40.4191 105.045 42.0319 102.707 44.4733 102.252Z" fill="var(--fill-0, #3B1C98)"/>
<path id="Vector_67" d="M43.2337 103.801C44.2885 103.788 44.6666 104.75 44.4134 105.667C44.168 106.555 43.8111 106.824 43.0224 107.257C42.5347 107.415 42.4345 107.495 41.9793 107.234C41.3145 106.217 42.3555 104.444 43.2337 103.801Z" fill="var(--fill-0, #4821B5)"/>
<path id="Vector_68" d="M46.4472 99.586C47.8474 98.9587 49.8572 98.0459 50.9678 97.0555C51.6701 96.4289 51.898 94.5697 53.5423 95.3011C55.7122 96.2665 57.3191 98.4557 56.0411 100.802C55.0035 102.488 52.7178 103.044 51.2856 104.142C50.1075 102.032 49.8127 101.558 47.5195 100.395C47.0302 100.146 46.6694 100.255 46.241 99.9773L46.2104 99.8093L46.4472 99.586Z" fill="var(--fill-0, #FDBD25)"/>
<path id="Vector_69" d="M46.4472 99.586C46.661 99.584 47.4855 99.5588 47.6543 99.5801C49.4439 99.8045 50.9042 101.432 52.1289 102.632C53.7331 102.039 54.7451 101.838 55.8496 100.505L56.0411 100.802C55.0035 102.488 52.7178 103.044 51.2856 104.142C50.1075 102.032 49.8127 101.558 47.5195 100.395C47.0302 100.146 46.6694 100.255 46.241 99.9773L46.2104 99.8093L46.4472 99.586Z" fill="var(--fill-0, #F39F05)"/>
<path id="Vector_70" d="M72.7707 126.637C74.8564 128.604 79.1377 131.42 81.9727 132.012C81.9686 132.803 81.954 133.615 81.9662 134.404C82.0052 136.914 82.0619 141.079 83.3129 143.221C84.7734 145.723 88.2791 148.176 90.7092 149.66C91.5924 150.102 91.7879 149.904 92.6004 149.503C92.6923 150.039 92.7477 151.022 92.7954 151.585C96.1275 151.592 99.448 151.195 102.685 150.405C104.125 150.063 105.522 149.625 106.957 149.28C106.851 150.061 106.794 150.646 106.75 151.432C106.813 153.235 107.026 153.959 107.769 155.615C105.368 156.382 103.949 156.718 101.465 157.25C102.029 157.921 102.685 159.227 103.275 159.765C105.379 162.248 107.503 163.869 110.537 165.178C111.313 165.513 112.928 165.967 113.536 166.391C114.556 166.393 116.21 167.04 117.11 167.553C118.877 168.561 120.326 170.151 120.312 172.291C106.097 175.915 92.287 174.213 78.26 170.848C78.0299 172.206 79.0372 172.806 80.0012 173.424C81.3199 174.147 81.0883 176.207 80.179 177.172C78.0332 179.374 74.0373 178.673 71.6083 177.377C67.6877 175.284 65.7363 171.386 65.4506 167.075C65.331 164.319 66.0218 162.105 67.2548 159.69C63.4769 160.462 62.0754 160.35 58.2363 160.311C57.9249 160.197 58.0119 160.296 57.8643 160.078C58.0026 159.816 58.5637 159.623 58.9055 159.418C59.9786 158.778 60.9888 158.198 61.9653 157.392C65.0788 154.821 67.8717 150.115 66.3435 146.003C66.0061 145.095 65.3379 144.636 64.4585 144.306C64.115 144.473 63.82 144.674 63.4641 144.687C62.6503 143.498 62.1445 142.66 61.5332 141.358C61.912 141.141 63.8495 140.689 64.4801 140.448C67.458 139.617 69.3959 137.865 71.6324 135.929C71.5451 133.152 71.66 131.014 72.3023 128.274C72.45 127.595 72.5315 127.286 72.7707 126.637Z" fill="var(--fill-0, #C0BEC4)"/>
<path id="Vector_71" d="M101.465 157.25C102.029 157.921 102.685 159.227 103.275 159.765C105.379 162.248 107.503 163.868 110.537 165.178C111.313 165.513 112.928 165.967 113.536 166.391C114.556 166.393 116.21 167.04 117.11 167.553C118.878 168.561 120.326 170.151 120.312 172.291C106.097 175.915 92.287 174.213 78.26 170.848C78.0487 166.388 83.3389 165.169 86.3707 163.389C87.0427 162.958 87.7357 162.472 88.3085 161.917C89.9901 160.334 90.5812 159.719 91.8402 157.745C95.1897 158.133 98.1776 157.806 101.465 157.25Z" fill="var(--fill-0, #FEBC52)"/>
<path id="Vector_72" d="M101.465 157.25C102.029 157.921 102.685 159.227 103.275 159.765C105.379 162.248 107.503 163.868 110.537 165.178C111.313 165.513 112.928 165.967 113.536 166.391C107.777 167.2 102.846 166.593 97.3823 164.681C93.9909 163.496 91.8688 162.627 88.3085 161.917C89.9901 160.334 90.5812 159.719 91.8402 157.745C95.1897 158.133 98.1776 157.806 101.465 157.25Z" fill="var(--fill-0, #4821B5)"/>
<path id="Vector_73" d="M67.2548 159.69C68.5764 157.731 70.1757 155.642 72.1213 154.245C74.331 152.661 77.7395 154.192 79.6969 155.573C82.4942 157.545 84.5644 160.502 86.3707 163.389C83.3389 165.169 78.0487 166.388 78.26 170.848C78.0299 172.206 79.0372 172.806 80.0012 173.424C81.3199 174.147 81.0883 176.207 80.179 177.172C78.0332 179.374 74.0373 178.673 71.6083 177.377C67.6877 175.284 65.7363 171.386 65.4506 167.075C65.331 164.319 66.0218 162.105 67.2548 159.69Z" fill="var(--fill-0, #9F5CF7)"/>
<path id="Vector_74" d="M64.48 140.447C67.4579 139.616 69.3958 137.864 71.6323 135.929C71.6851 137.709 71.974 139.954 72.6519 141.614L72.6905 141.647C72.7676 141.959 73.0772 142.715 73.0609 142.829C71.6224 145.027 72.3147 146.46 73.9308 148.182C78.5316 153.082 85.2624 156.548 91.8401 157.744C90.5811 159.719 89.99 160.333 88.3084 161.916C87.7356 162.471 87.0426 162.957 86.3706 163.388C84.5642 160.501 82.4941 157.544 79.6968 155.572C77.7394 154.191 74.3309 152.66 72.1212 154.245C70.1756 155.641 68.5763 157.731 67.2547 159.689C63.4768 160.461 62.0753 160.35 58.2362 160.31C57.9248 160.196 58.0118 160.295 57.8641 160.078C58.0025 159.816 58.5636 159.622 58.9054 159.418C59.9785 158.778 60.9887 158.197 61.9652 157.391C65.0787 154.821 67.8716 150.114 66.3434 146.002C66.006 145.095 65.3378 144.635 64.4584 144.305C64.1149 144.472 63.8199 144.673 63.464 144.687C62.6502 143.497 62.1444 142.659 61.5331 141.357C61.9119 141.14 63.8494 140.688 64.48 140.447Z" fill="var(--fill-0, #7C43EC)"/>
<path id="Vector_75" d="M64.4801 140.447C67.458 139.616 69.3959 137.864 71.6324 135.929C71.6852 137.709 71.9741 139.954 72.652 141.614C72.3473 141.87 70.1324 141.861 69.3884 142.101C67.7338 142.634 65.967 143.463 64.4586 144.305C64.115 144.472 63.82 144.673 63.4641 144.687C62.6503 143.497 62.1445 142.659 61.5332 141.357C61.912 141.14 63.8495 140.688 64.4801 140.447Z" fill="var(--fill-0, #4821B5)"/>
<path id="Vector_76" d="M72.7707 126.637C74.8564 128.604 79.1377 131.42 81.9727 132.012C81.9686 132.803 81.954 133.615 81.9661 134.404C82.0052 136.914 82.0619 141.079 83.3128 143.221C84.7734 145.723 88.2791 148.176 90.7092 149.66C90.5675 150.104 90.6828 150.843 90.7311 151.324C85.7516 150.016 81.0459 147.834 76.8354 144.878C75.6951 144.072 73.6539 142.142 72.6906 141.648L72.652 141.615C71.9741 139.954 71.6852 137.709 71.6323 135.929C71.5451 133.152 71.66 131.014 72.3023 128.274C72.45 127.595 72.5314 127.286 72.7707 126.637Z" fill="var(--fill-0, #C0BEC4)"/>
<path id="Vector_77" d="M72.7707 126.637C74.8564 128.604 79.1377 131.42 81.9727 132.012C81.9686 132.803 81.954 133.615 81.9662 134.404C77.9756 132.53 75.6131 131.566 72.3023 128.274C72.45 127.595 72.5315 127.286 72.7707 126.637Z" fill="var(--fill-0, #9D9EAD)"/>
<path id="Vector_78" d="M72.6906 141.648C73.6539 142.142 75.6951 144.072 76.8354 144.878C81.0459 147.834 85.7516 150.016 90.7311 151.323C90.6828 150.843 90.5676 150.104 90.7092 149.66C91.5924 150.102 91.7879 149.904 92.6004 149.503C92.6923 150.039 92.7477 151.021 92.7954 151.585C96.1276 151.592 99.448 151.195 102.685 150.405C104.125 150.063 105.522 149.625 106.957 149.28C106.851 150.061 106.794 150.646 106.75 151.432C102.485 152.866 96.7362 153.893 92.1899 153.689C91.3502 153.651 89.887 153.195 89.0902 152.97C84.4192 151.653 75.28 147.048 73.061 142.83C73.0773 142.716 72.7677 141.96 72.6906 141.648Z" fill="var(--fill-0, #9D9EAD)"/>
<path id="Vector_79" d="M92.3606 35.0308C95.1367 31.8048 98.6195 29.8054 102.896 29.3604C107.525 28.8787 112.287 30.894 114.098 35.4086C115.122 37.9637 114.191 42.9522 118.544 42.8173C120.27 42.7637 122.059 40.8768 123.771 42.3459C124.391 42.8723 124.638 43.5571 124.864 44.2776C125.227 49.1046 122.16 52.3473 117.543 53.3466C116.861 53.4941 115.835 53.4475 115.218 53.6512C114.672 53.4186 113.921 53.495 113.319 53.3973C110.913 53.0066 109.058 52.4914 106.999 54.2347C106.891 54.2322 106.952 54.2428 106.842 54.1905C102.127 51.9515 96.2086 51.2913 91.2326 53.0084C91.1905 53.0122 91.1483 53.016 91.1062 53.0198L90.844 52.5136C87.9521 47.103 88.3102 39.7786 92.3606 35.0308Z" fill="var(--fill-0, #9F5CF7)"/>
<path id="Vector_80" d="M97.5332 50.864C97.5604 50.4929 97.5974 50.1226 97.6432 49.7533C98.0287 46.7117 99.3448 43.3894 101.799 41.4361C104.444 39.3321 108.362 39.3099 110.678 41.9218C111.665 43.0346 112.162 44.4118 113.052 45.5606C114.103 46.9353 115.669 47.8252 117.39 48.0258C119.849 48.3317 122.485 47.3451 124.162 45.5227C124.561 45.091 124.799 44.8659 124.864 44.2776C125.227 49.1046 122.16 52.3473 117.543 53.3466C116.861 53.4941 115.835 53.4475 115.218 53.6512C114.672 53.4186 113.921 53.495 113.319 53.3973C110.913 53.0066 109.058 52.4914 106.999 54.2347C106.891 54.2322 106.952 54.2428 106.842 54.1905C102.127 51.9515 96.2087 51.2913 91.2327 53.0084C91.1905 53.0122 91.1483 53.016 91.1062 53.0198L90.844 52.5136C93.3265 50.9006 94.5556 50.8894 97.5332 50.864Z" fill="var(--fill-0, #7C43EC)"/>
<path id="Vector_81" d="M156.224 39.2547C157.006 39.208 157.539 39.1521 158.314 39.3453C159.44 39.6153 160.409 40.3314 160.995 41.3286C161.698 42.5453 161.737 44.0082 161.394 45.3453C160.619 48.3746 157.051 50.5333 154.432 51.9953C152.792 52.7174 150.371 53.1216 149.822 50.7305C149.29 48.4121 150.283 45.1077 151.398 43.0515C152.474 41.0672 154.031 39.8367 156.224 39.2547Z" fill="var(--fill-0, #FEBC52)"/>
<path id="Vector_82" d="M18.0708 153.738C19.5976 153.623 20.8662 153.88 22.2381 154.709C24.3163 155.962 27.4558 160.128 26.007 162.588C25.4957 163.455 24.3681 163.711 23.4236 163.88C16.0898 164.634 11.7863 155.215 18.0708 153.738Z" fill="var(--fill-0, #FEBC52)"/>
<path id="Vector_83" d="M58.2363 160.311C62.0754 160.35 63.4769 160.462 67.2548 159.69C66.0218 162.105 65.331 164.319 65.4506 167.075C62.2546 166.089 59.2938 165.037 56.1545 163.884C54.4095 163.243 52.34 162.447 50.5799 161.922C52.7113 160.57 55.7742 160.287 58.2363 160.311Z" fill="var(--fill-0, #FEBC52)"/>
<path id="Vector_84" d="M165.009 55.8721C170.009 55.9905 169.657 63.3379 162.35 62.2093C160.933 61.9532 157.094 61.3259 159.127 58.8895C160.385 57.3816 163.015 56.0486 165.009 55.8721Z" fill="var(--fill-0, #FEBC52)"/>
</g>
</svg>
