<svg width="156" height="32" viewBox="0 0 156 32" fill="none" xmlns="http://www.w3.org/2000/svg">
<path d="M77.4918 6.27388C78.3998 6.28839 81.9692 6.08266 82.5115 6.49631C82.673 6.6196 82.7614 6.80326 82.7979 7C82.8771 7.43035 82.8231 7.92319 82.817 8.36091C82.8002 9.56586 82.7065 10.8661 82.884 12.0593C87.6417 9.10415 92.0315 12.3256 91.819 17.5979C91.7276 19.8769 91.8197 22.4776 89.7715 24.0638C88.2998 24.9851 87.5168 25.164 85.7496 25.0858C84.313 25.0222 83.6404 24.5307 82.4872 23.7758C82.398 24.1874 82.2982 24.4129 82.1383 24.8001C80.6057 24.8549 78.332 24.847 76.8108 24.7915C76.3035 23.8929 76.4604 23.0634 76.4597 22.0479L76.4574 18.0888L76.4566 11.364C76.4566 10.2893 76.3142 7.65508 76.6905 6.54678C76.759 6.34407 77.2541 6.30302 77.4918 6.27388ZM84.4768 20.3425C84.8424 20.1011 84.9201 20.01 85.1989 19.6827C85.4784 18.4075 85.8669 15.5537 83.795 15.7053C82.7499 16.2062 82.769 16.9281 82.7522 18.0176C82.7309 19.3976 82.8612 20.4045 84.4768 20.3425Z" fill="#F4F0E8"/>
<path d="M20.7512 9.55598C22.3471 9.36901 26.8795 9.55065 27.8593 10.9321C29.7555 13.8914 29.2068 18.3631 29.2254 21.7367C29.2462 25.4981 28.5316 26.3563 24.9682 26.3816C23.137 26.387 19.1806 26.632 17.7441 25.391C15.8273 23.735 16.2023 20.3737 16.3252 18.1119C16.4396 16.0068 16.536 13.8659 17.0499 11.7863C17.5705 9.67957 18.9692 9.67636 20.7512 9.55598ZM21.6359 15.1635C21.6258 16.3382 21.617 17.5129 21.6132 18.6876C21.6103 19.5943 21.5898 19.9841 22.0051 20.797C22.8106 20.9881 23.38 20.9572 24.2063 20.8079C24.5297 20.6365 24.7403 20.3811 24.9539 20.0853C25.1628 18.7487 24.8656 16.1983 24.3986 14.9032L23.6757 14.3912C23.2861 14.3904 22.8135 14.375 22.4327 14.4242C22.045 14.6488 21.9107 14.8124 21.6359 15.1635Z" fill="#F4F0E8"/>
<path d="M103.045 11.2269C104.51 11.139 106.701 11.1956 108.192 11.2379C108.637 11.2505 108.791 11.4428 109.039 11.7699C109.131 13.4275 109.048 15.9168 109.046 17.6383C109.045 18.717 109.269 24.0889 108.785 24.6889C108.264 24.9083 104.019 24.8329 103.291 24.7682C102.991 24.3077 102.984 24.1532 102.93 23.6231C101.137 24.9628 99.8165 25.3545 97.5656 24.9769C95.4968 24.63 93.9665 22.7008 93.7646 20.6896C93.6008 19.0528 93.6184 17.3417 93.6519 15.6995C93.6762 14.4828 93.5041 12.7639 93.7273 11.6171C93.901 11.3965 93.9832 11.3596 94.23 11.2228C95.0306 11.1818 99.4653 11.0575 99.853 11.4163C100.194 11.7312 99.9543 17.959 100.028 18.9526C100.058 19.3563 100.121 19.8079 100.448 20.0834C100.711 20.3058 101.077 20.3817 101.415 20.3526C101.753 20.3234 102.102 20.176 102.322 19.9102C102.906 19.2025 102.712 13.1672 102.584 11.9481C102.681 11.7542 102.917 11.4197 103.045 11.2269Z" fill="#F4F0E8"/>
<path d="M39.9308 10.9969C41.495 10.7161 43.3586 11.4924 44.3561 12.7104C44.929 13.418 45.3238 14.2527 45.5073 15.1445C45.8582 16.8342 45.5349 19.1801 45.6306 20.9602C45.663 21.5625 45.7739 24.3662 45.3915 24.6773C44.6951 24.9617 40.7888 24.7807 39.697 24.7582C38.5338 24.7341 39.7581 17.0708 38.9236 16.164C38.5525 15.7607 38.3104 15.7868 37.8801 15.6785C36.7439 16.0263 36.7194 16.4072 36.7242 17.5048L36.7469 21.52C36.7507 22.6147 36.9173 23.8605 36.3371 24.8034C35.5039 24.8264 30.8816 24.9331 30.4763 24.6308C30.2188 24.1699 30.2886 18.3635 30.3103 17.4049C30.3399 16.0907 30.1622 12.6609 30.4092 11.5386C31.01 10.9854 34.8824 11.2047 35.9154 11.2242C36.2551 11.7969 36.2457 11.9408 36.2826 12.5904C37.5078 11.7085 38.4363 11.1906 39.9308 10.9969Z" fill="#F4F0E8"/>
<path d="M66.2333 10.9954C68.0717 10.676 71.1496 11.2634 72.6354 12.4407C73.3399 12.9989 73.8607 13.8924 74.1074 14.7522C74.2405 15.2306 74.3213 15.7221 74.3482 16.2181C74.4389 17.6705 74.3359 19.2543 74.3543 20.7233C74.3618 21.3213 74.595 24.717 73.9248 24.7724C72.3754 24.9003 70.6734 24.7646 69.1023 24.8254C68.4426 24.8508 68.3277 24.1843 68.2102 23.7103C66.4357 25.5281 63.5469 25.444 61.4689 24.2189C61.358 24.1385 61.2481 24.0566 61.1394 23.9732C60.2731 23.3057 59.8482 22.7063 59.6758 21.6172C58.947 17.0117 64.7644 16.3759 68.1039 15.9554C67.8534 14.2143 67.0612 14.5793 65.9338 15.4662C65.3534 15.5117 60.4176 15.7584 60.5043 15.0541C60.85 12.2457 63.8329 11.3432 66.2333 10.9954ZM66.0731 21.1387C66.6042 21.205 66.9956 21.2028 67.4545 20.8626C67.8692 20.5549 68.2952 19.8426 68.0551 19.3216C68.011 19.3145 67.864 19.2878 67.8293 19.2895C67.176 19.4353 65.5981 19.6698 65.5467 20.4909C65.6278 20.8146 65.7398 20.9396 66.0315 21.1142C66.0453 21.1224 66.0591 21.1307 66.0731 21.1387Z" fill="#F4F0E8"/>
<path d="M55.2463 5.60511C55.7113 5.5744 59.1395 5.34327 59.2113 5.79658C59.3879 6.91146 59.4153 8.64726 59.2525 9.79454C59.1651 10.411 56.3852 9.83096 55.9639 10.2313C55.5228 10.4825 55.3963 10.8041 55.5716 11.1335C55.7991 11.2632 58.2808 11.2151 58.7329 11.2148C58.8232 11.3116 59.0273 11.6244 59.1131 11.7495C59.1385 16.1484 59.9673 15.8235 55.5513 15.8614C55.447 17.4624 55.8897 23.6553 55.2708 24.6598C55.0926 24.8275 54.8067 24.8048 54.5577 24.8132C53.7669 24.8181 50.2417 24.9091 49.7347 24.6991C49.1938 23.9897 49.5159 17.55 49.3817 15.915C48.8668 15.8386 47.3399 15.928 47.1513 15.6394C46.7696 15.0554 46.7985 12.0447 47.1409 11.4038C47.2867 11.1308 49.0912 11.1893 49.4016 11.1826C49.6079 7.13824 51.1251 5.74179 55.2463 5.60511Z" fill="#F4F0E8"/>
<path d="M142.505 5.66269C143.059 5.62394 143.785 5.63771 144.351 5.63232C144.462 7.60882 143.725 9.69504 143.381 11.6937C145.111 10.4464 146.143 9.69953 148.451 10.0905C149.476 10.2701 150.387 10.8508 150.983 11.704C151.9 13 151.982 14.7194 151.681 16.2187C151.159 18.8202 150.458 20.9052 148.233 22.4804C146.691 23.7862 143.094 23.9286 141.698 22.3293C141.562 22.1735 141.314 21.9848 141.152 21.8427C140.786 23.551 140.368 23.2271 138.765 23.1937C138.659 21.8499 139.187 20.0555 139.474 18.7009L140.758 12.5878C141.223 10.4268 141.674 8.25877 142.154 6.10138C142.193 5.92778 142.372 5.76813 142.505 5.66269ZM144.76 21.4553C146.634 21.2502 147.656 20.3785 148.458 18.7096C149.479 16.5823 150.43 11.9183 146.68 12.148C143.34 12.4279 142.353 15.142 142.013 18.0787C141.786 20.0359 142.628 21.4532 144.76 21.4553Z" fill="#F4F0E8"/>
<path d="M130.23 10.0788C131.875 9.99428 133.133 9.9091 134.349 11.1283C134.504 11.2841 134.773 11.5499 134.973 11.5961C135.109 11.4768 135.17 10.892 135.23 10.6513C135.598 10.2494 136.803 10.2409 137.294 10.4095C137.317 10.4371 137.341 10.4701 137.352 10.5048C137.553 11.1547 135.192 22.2448 134.734 23.0692C134.443 23.2846 133.234 23.1813 132.814 23.1672C132.761 22.7993 132.74 22.2593 132.706 21.8692C132.262 22.0181 131.832 22.7554 131.052 23.0577C129.155 23.7937 127.907 23.5486 126.139 22.8782C125.991 22.6456 125.777 22.4574 125.585 22.2475C123.513 19.9841 124.717 16.1105 125.806 13.6292C126.615 11.7845 128.289 10.5079 130.23 10.0788ZM130.301 21.2714C131.477 20.9485 132.475 20.1693 133.075 19.1067C133.777 17.8881 134.334 15.1918 133.979 13.7914C133.552 12.107 132.198 12.1077 130.781 12.202C127.922 12.7848 126.866 16.7832 126.957 19.3745C127.015 21.0289 128.814 21.8975 130.301 21.2714Z" fill="#F4F0E8"/>
<path d="M7.24308 11.6889C10.4275 11.408 13.8506 13.0645 14.88 16.2093C14.9465 16.4125 14.9737 16.6595 14.8655 16.8511C14.1734 17.4093 10.1538 17.1388 9.12599 17.0836C8.88818 17.0708 8.16409 15.8651 7.38944 15.9524C6.70045 16.2482 6.69364 18.8942 6.82829 19.5505C7.274 21.723 8.30311 20.6208 9.03047 19.6443C10.5321 19.5509 12.1154 19.6288 13.6255 19.6082C14.7057 19.5935 14.9726 19.7995 14.8047 20.835C12.5359 26.8012 1.53659 26.623 0.784472 19.897C0.225048 14.8943 2.07632 12.0844 7.24308 11.6889Z" fill="#F4F0E8"/>
<path d="M121.952 5.65394C122.462 5.63603 123.532 5.51382 123.896 5.84473C124.085 6.31006 122.662 12.177 122.465 13.121L121.145 19.392C120.976 20.166 120.563 22.8055 120.058 23.1744C119.609 23.2033 118.451 23.2864 118.113 23.0125C118.003 22.6568 118.575 20.0525 118.703 19.6765C119.31 17.8887 121.187 6.38731 121.952 5.65394Z" fill="#F4F0E8"/>
<path d="M113.438 22.4225C113.924 22.385 114.446 22.4057 114.936 22.4154C115.139 22.5597 115.385 22.7071 115.599 22.842C115.943 23.9679 115.981 24.1712 115.943 25.3642C115.747 25.7232 115.687 25.8615 115.324 25.9895C114.875 26.0479 113.173 26.1127 112.966 25.6671C112.59 24.8583 112.672 22.9931 113.438 22.4225Z" fill="#F4F0E8"/>
<path d="M17.3496 28.0502C18.5551 28.0117 20.7471 28.026 21.5462 28.0026C22.5202 27.9742 27.632 27.4227 27.913 28.2632C28.5394 30.137 27.6131 31.9238 25.1322 31.6352C24.2913 31.5373 20.3899 31.6756 20.1758 31.7796L20.128 32H17.1813C16.2957 30.9753 16.4492 29.6627 16.8553 28.481L17.3496 28.0502Z" fill="#F4F0E8"/>
</svg>
