<svg width="40" height="36" viewBox="0 0 40 36" fill="none" xmlns="http://www.w3.org/2000/svg">
<path d="M33.8265 12.3266L21.3265 24.8266C21.1523 25.0014 20.9453 25.1401 20.7174 25.2347C20.4895 25.3294 20.2451 25.3781 19.9984 25.3781C19.7516 25.3781 19.5072 25.3294 19.2793 25.2347C19.0514 25.1401 18.8444 25.0014 18.6702 24.8266L6.17024 12.3266C5.818 11.9744 5.62012 11.4966 5.62012 10.9985C5.62012 10.5003 5.818 10.0226 6.17024 9.67034C6.52249 9.3181 7.00023 9.12022 7.49837 9.12022C7.99651 9.12022 8.47425 9.3181 8.82649 9.67034L19.9999 20.8438L31.1734 9.66878C31.5256 9.31654 32.0033 9.11865 32.5015 9.11865C32.9996 9.11865 33.4774 9.31654 33.8296 9.66878C34.1819 10.021 34.3797 10.4988 34.3797 10.9969C34.3797 11.495 34.1819 11.9728 33.8296 12.325L33.8265 12.3266Z" fill="#F4F0E8"/>
</svg>
