<svg width="18" height="18" viewBox="0 0 18 18" fill="none" xmlns="http://www.w3.org/2000/svg">
<path d="M10.6874 7.87492C10.6874 8.0241 10.6282 8.16718 10.5227 8.27266C10.4172 8.37815 10.2741 8.43742 10.1249 8.43742H8.43742V10.1249C8.43742 10.2741 8.37815 10.4172 8.27266 10.5227C8.16718 10.6282 8.0241 10.6874 7.87492 10.6874C7.72573 10.6874 7.58266 10.6282 7.47717 10.5227C7.37168 10.4172 7.31242 10.2741 7.31242 10.1249V8.43742H5.62492C5.47573 8.43742 5.33266 8.37815 5.22717 8.27266C5.12168 8.16718 5.06242 8.0241 5.06242 7.87492C5.06242 7.72573 5.12168 7.58266 5.22717 7.47717C5.33266 7.37168 5.47573 7.31242 5.62492 7.31242H7.31242V5.62492C7.31242 5.47573 7.37168 5.33266 7.47717 5.22717C7.58266 5.12168 7.72573 5.06242 7.87492 5.06242C8.0241 5.06242 8.16718 5.12168 8.27266 5.22717C8.37815 5.33266 8.43742 5.47573 8.43742 5.62492V7.31242H10.1249C10.2741 7.31242 10.4172 7.37168 10.5227 7.47717C10.6282 7.58266 10.6874 7.72573 10.6874 7.87492ZM16.1479 16.1479C16.0956 16.2002 16.0336 16.2417 15.9653 16.27C15.897 16.2983 15.8238 16.3129 15.7499 16.3129C15.676 16.3129 15.6028 16.2983 15.5345 16.27C15.4662 16.2417 15.4042 16.2002 15.3519 16.1479L11.8321 12.6273C10.6071 13.6477 9.03577 14.1566 7.44512 14.048C5.85447 13.9394 4.36692 13.2217 3.29193 12.0443C2.21693 10.8668 1.63725 9.32029 1.67348 7.72635C1.7097 6.13241 2.35904 4.6138 3.48642 3.48642C4.6138 2.35904 6.13241 1.7097 7.72635 1.67348C9.32029 1.63725 10.8668 2.21693 12.0443 3.29193C13.2217 4.36692 13.9394 5.85447 14.048 7.44512C14.1566 9.03577 13.6477 10.6071 12.6273 11.8321L16.1479 15.3519C16.2002 15.4042 16.2417 15.4662 16.27 15.5345C16.2983 15.6028 16.3129 15.676 16.3129 15.7499C16.3129 15.8238 16.2983 15.897 16.27 15.9653C16.2417 16.0336 16.2002 16.0956 16.1479 16.1479ZM7.87492 12.9374C8.87618 12.9374 9.85497 12.6405 10.6875 12.0842C11.52 11.528 12.1689 10.7373 12.5521 9.81225C12.9352 8.8872 13.0355 7.8693 12.8401 6.88727C12.6448 5.90524 12.1626 5.00319 11.4546 4.29519C10.7466 3.58718 9.84459 3.10503 8.86256 2.90969C7.88053 2.71435 6.86263 2.81461 5.93758 3.19778C5.01253 3.58095 4.22188 4.22982 3.6656 5.06234C3.10933 5.89487 2.81242 6.87365 2.81242 7.87492C2.81391 9.21712 3.34775 10.5039 4.29683 11.453C5.24591 12.4021 6.53272 12.9359 7.87492 12.9374Z" fill="#52525B"/>
</svg>
